<svg xmlns="http://www.w3.org/2000/svg" version="1.1" xmlns:xlink="http://www.w3.org/1999/xlink" xmlns:svgjs="http://svgjs.dev/svgjs" width="1500" height="1500" viewBox="0 0 1500 1500"><rect width="1500" height="1500" fill="#ffffff"></rect><g transform="matrix(0.6666666666666666,0,0,0.6666666666666666,249.39393939393938,631.2739768951193)"><svg viewBox="0 0 396 94" data-background-color="#ffffff" preserveAspectRatio="xMidYMid meet" height="356" width="1500" xmlns="http://www.w3.org/2000/svg" xmlns:xlink="http://www.w3.org/1999/xlink"><g id="tight-bounds" transform="matrix(1,0,0,1,0.2400000000000091,0.02350915109042262)"><svg viewBox="0 0 395.52 93.95298169781915" height="93.95298169781915" width="395.52"><g><svg viewBox="0 0 678.5993442407153 161.19648" height="93.95298169781915" width="395.52"><g><rect width="10.518715572480001" height="139.968" x="423.05590464" y="10.61424000000001" fill="#f47e25" opacity="1" stroke-width="0" stroke="transparent" fill-opacity="1" class="rect-yte-0" data-fill-palette-color="primary" rx="1%" id="yte-0" data-palette-color="#f47e25"></rect></g><g transform="matrix(1,0,0,1,0,22.278240000000004)"><svg viewBox="0 0 395.52 116.64" height="116.64" width="395.52"><g id="textblocktransform"><svg viewBox="0 0 395.52 116.64" height="116.64" width="395.52" id="textblock"><g><svg viewBox="0 0 395.52 116.64" height="116.64" width="395.52"><g transform="matrix(1,0,0,1,0,0)"><svg width="395.52" viewBox="0.5 -35.7 123.59 36.45" height="116.64" data-palette-color="#f47e25"><path d="M12.25-24.8L12.25-24.8 12.25-31.45Q12.25-32 11.9-32.2 11.55-32.4 11-32.35L11-32.35 0.95-31.85 0.5-32.3 0.5-35.2 0.9-35.6Q4.5-35.55 8.1-35.35 11.7-35.15 15.3-35.15L15.3-35.15Q19.05-35.15 22.8-35.35 26.55-35.55 30.3-35.7L30.3-35.7 30.8-35.2 30.8-32.7 30.25-32.25Q30.05-32.25 28.88-32.27 27.7-32.3 26.05-32.35 24.4-32.4 22.7-32.43 21-32.45 19.7-32.45L19.7-32.45Q19.15-32.45 18.9-32.33 18.65-32.2 18.65-31.7L18.65-31.7 18.65-24.8Q18.65-19 18.9-13.15 19.15-7.3 19.5-1.5L19.5-1.5 12.3 0.55 11.85-0.05Q12.05-6.25 12.15-12.43 12.25-18.6 12.25-24.8ZM36.25-31.05L36.25-31.05Q36.25-32.4 37.22-33.38 38.2-34.35 39.55-34.35L39.55-34.35Q40.9-34.35 41.87-33.38 42.85-32.4 42.85-31.05L42.85-31.05Q42.85-29.7 41.87-28.73 40.9-27.75 39.55-27.75L39.55-27.75Q38.2-27.75 37.22-28.73 36.25-29.7 36.25-31.05ZM47.8-5.95L47.8-5.95 48.65-5.15 48.65-4.6Q47.7-3.45 46.45-2.23 45.2-1 43.77-0.18 42.35 0.65 40.85 0.65L40.85 0.65Q39.95 0.65 39.15 0.28 38.35-0.1 37.85-0.75L37.85-0.75Q37.2-1.65 37-2.95 36.8-4.25 36.85-6.58 36.9-8.9 36.9-12.7L36.9-12.7 36.9-18.55Q36.85-19.35 36.52-20.18 36.2-21 35.15-21L35.15-21Q34.35-21 33.47-20.53 32.6-20.05 31.7-19.4L31.7-19.4 30.9-20.5Q32.05-21.45 33.42-22.4 34.8-23.35 36.25-24 37.7-24.65 39.15-24.65L39.15-24.65Q39.9-24.65 40.6-24.38 41.3-24.1 41.65-23.5L41.65-23.5Q41.95-23 42.1-22.25 42.25-21.5 42.25-19.3L42.25-19.3Q42.25-17.8 42.17-16.28 42.1-14.75 42.1-13.25L42.1-13.25Q42.1-10.2 42.07-8.05 42.05-5.9 42.5-4.75 42.95-3.6 44.25-3.6L44.25-3.6Q45.15-3.6 46.1-4.4 47.05-5.2 47.8-5.95ZM69.59-22.75L69.59-22.75 72.59-24.65 73.3-24.2Q72.94-20.8 72.72-17.38 72.5-13.95 72.5-10.55L72.5-10.55Q72.5-7.2 72.69-5.43 72.9-3.65 74.15-3.65L74.15-3.65Q75-3.65 75.94-4.38 76.9-5.1 77.65-5.75L77.65-5.75 78.59-4.7Q77.59-3.5 76.32-2.27 75.05-1.05 73.55-0.23 72.05 0.6 70.34 0.6L70.34 0.6Q68.65 0.6 68.02-0.5 67.39-1.6 67.25-2.7L67.25-2.7 66.59-2.95Q64.64-1.5 62.25-0.38 59.84 0.75 57.3 0.75L57.3 0.75Q55.3 0.75 53.92-0.25 52.55-1.25 51.72-2.85 50.9-4.45 50.55-6.23 50.2-8 50.2-9.55L50.2-9.55Q50.2-17.15 53.27-21.03 56.34-24.9 62.3-24.9L62.3-24.9Q64.34-24.9 66.14-24.33 67.94-23.75 69.59-22.75ZM66.94-5.85L66.94-5.85Q67.09-6.95 67.17-8.83 67.25-10.7 67.3-12.78 67.34-14.85 67.34-16.55L67.34-16.55Q67.34-17.85 67.05-19.35 66.75-20.85 65.77-21.93 64.8-23 62.75-23L62.75-23Q60.59-23 59.25-21.88 57.9-20.75 57.15-18.98 56.4-17.2 56.12-15.2 55.84-13.2 55.84-11.5L55.84-11.5Q55.84-10.2 56.07-8.75 56.3-7.3 56.9-6.03 57.5-4.75 58.52-3.95 59.55-3.15 61.09-3.15L61.09-3.15Q62.8-3.15 64.32-4 65.84-4.85 66.94-5.85ZM77.79-33.85L87.19-35.25 87.94-34.65 87.59-20.9 88.14-20.75Q90.09-22.35 92.44-23.5 94.79-24.65 97.44-24.65L97.44-24.65Q99.64-24.65 101.14-23.75 102.64-22.85 103.57-21.4 104.49-19.95 104.92-18.23 105.34-16.5 105.34-14.8L105.34-14.8Q105.34-11.7 104.19-8.72 103.04-5.75 100.54-3.6L100.54-3.6Q98.34-1.75 95.64-0.53 92.94 0.7 89.89 0.7L89.89 0.7Q87.89 0.7 86.12-0.1 84.34-0.9 83.24-2.8 82.14-4.7 82.14-8.05L82.14-8.05 82.14-25.35Q82.14-26.8 82.09-27.9 82.04-29 82.04-30.1L82.04-30.1Q82.04-31.25 80.82-31.68 79.59-32.1 77.34-32.3L77.34-32.3 77.34-33.4 77.79-33.85ZM87.59-18.35L87.59-18.35 87.44-11.65Q87.44-10.1 87.64-8.4 87.84-6.7 88.34-5.23 88.84-3.75 89.82-2.83 90.79-1.9 92.34-1.9L92.34-1.9Q94.39-1.9 95.77-2.83 97.14-3.75 97.94-5.25 98.74-6.75 99.07-8.5 99.39-10.25 99.39-11.9L99.39-11.9Q99.39-13.25 99.19-14.83 98.99-16.4 98.39-17.8 97.79-19.2 96.62-20.08 95.44-20.95 93.44-20.95L93.44-20.95Q91.84-20.95 90.34-20.1 88.84-19.25 87.59-18.35ZM111.69-31.05L111.69-31.05Q111.69-32.4 112.66-33.38 113.64-34.35 114.99-34.35L114.99-34.35Q116.34-34.35 117.31-33.38 118.29-32.4 118.29-31.05L118.29-31.05Q118.29-29.7 117.31-28.73 116.34-27.75 114.99-27.75L114.99-27.75Q113.64-27.75 112.66-28.73 111.69-29.7 111.69-31.05ZM123.24-5.95L123.24-5.95 124.09-5.15 124.09-4.6Q123.14-3.45 121.89-2.23 120.64-1 119.22-0.18 117.79 0.65 116.29 0.65L116.29 0.65Q115.39 0.65 114.59 0.28 113.79-0.1 113.29-0.75L113.29-0.75Q112.64-1.65 112.44-2.95 112.24-4.25 112.29-6.58 112.34-8.9 112.34-12.7L112.34-12.7 112.34-18.55Q112.29-19.35 111.97-20.18 111.64-21 110.59-21L110.59-21Q109.79-21 108.91-20.53 108.04-20.05 107.14-19.4L107.14-19.4 106.34-20.5Q107.49-21.45 108.86-22.4 110.24-23.35 111.69-24 113.14-24.65 114.59-24.65L114.59-24.65Q115.34-24.65 116.04-24.38 116.74-24.1 117.09-23.5L117.09-23.5Q117.39-23 117.54-22.25 117.69-21.5 117.69-19.3L117.69-19.3Q117.69-17.8 117.61-16.28 117.54-14.75 117.54-13.25L117.54-13.25Q117.54-10.2 117.52-8.05 117.49-5.9 117.94-4.75 118.39-3.6 119.69-3.6L119.69-3.6Q120.59-3.6 121.54-4.4 122.49-5.2 123.24-5.95Z" opacity="1" transform="matrix(1,0,0,1,0,0)" fill="#f47e25" class="wordmark-text-0" data-fill-palette-color="primary" id="text-0"></path></svg></g></svg></g></svg></g></svg></g><g transform="matrix(1,0,0,1,461.11052485248,0)"><svg viewBox="0 0 217.4888193882353 161.19648" height="161.19648" width="217.4888193882353"><g><svg xmlns="http://www.w3.org/2000/svg" xmlns:xlink="http://www.w3.org/1999/xlink" version="1.1" x="0" y="0" viewBox="164.5 245 688.1 510" style="enable-background:new 0 0 1000 1000;" xml:space="preserve" height="161.19648" width="217.4888193882353" class="icon-icon-0" data-fill-palette-color="accent" id="icon-0"><g fill="#f47e25" data-fill-palette-color="accent"><path d="M813.7 711.8L786.8 707C787.1 702.3 787.3 697.2 787.3 691.6 787.4 678.7 786.5 663.7 784 647.8 782.7 639.9 781 631.8 778.7 623.7S773.7 607.5 770.4 599.6 763.3 584.1 759 576.9 750 563 745 556.8C740 550.7 734.8 545.1 729.6 540.2S719.1 530.9 714.1 527.3C709.1 523.6 704.3 520.4 700 517.9 698.9 517.2 697.9 516.6 696.9 516S694.9 514.9 693.9 514.3C692 513.2 690.3 512.3 688.6 511.5 687 510.7 685.6 510 684.3 509.3 683 508.7 682 508.2 681.1 507.8 679.5 507 678.5 506.6 678.4 506.6 678.5 506.7 679.4 507.2 680.9 508.1 681.7 508.6 682.7 509.2 683.9 510 685.1 510.7 686.4 511.6 687.9 512.6S691 514.7 692.8 516C693.7 516.6 694.6 517.3 695.5 518S697.4 519.4 698.4 520.2C702.3 523.2 706.6 526.8 711.1 531 715.6 535.1 720.1 539.9 724.5 545.1 729 550.4 733.3 556.2 737.3 562.5S745 575.6 748.2 582.7 754.1 597.2 756.3 604.8C758.5 612.3 760.2 620 761.4 627.7 762.6 635.3 763.3 642.9 763.7 650.2 764.4 664.9 763.6 678.6 762.2 690.2 761.7 694.5 761.1 698.6 760.4 702.3L201.5 601.6C228.2 453.3 386.9 357.7 556 388.1 725 418.6 840.4 563.5 813.7 711.8" fill="#f47e25" data-fill-palette-color="accent"></path><path d="M564.4 298.2C543.2 294.4 522.9 308.5 519.1 329.7S529.4 371.2 550.6 375 592.1 364.7 595.9 343.5 585.6 302 564.4 298.2M585.2 325.3C583.6 334.4 574.9 340.4 565.8 338.8S550.7 328.5 552.3 319.4 562.6 304.3 571.7 305.9 586.8 316.2 585.2 325.3" fill="#f47e25" data-fill-palette-color="accent"></path><path d="M841.6 755H175.5C169.4 755 164.5 750 164.5 744 164.5 737.9 169.5 733 175.5 733H841.6C847.7 733 852.6 738 852.6 744 852.6 750.1 847.7 755 841.6 755" fill="#f47e25" data-fill-palette-color="accent"></path><path d="M200.8 475.3C206.4 490.2 206.4 503.6 202.3 513.3 198.6 523 190.8 529.1 191.2 529.1 190.7 529.1 193.8 523.1 192.7 513.3 192 503.6 187.2 490.1 181.6 475.3 176 460.4 176 447 180.1 437.3 183.8 427.6 191.6 421.5 191.2 421.5 191.7 421.5 188.6 427.5 189.7 437.3 190.4 447 195.3 460.4 200.8 475.3" fill="#f47e25" data-fill-palette-color="accent"></path><path d="M221.8 421.3C227.4 436.2 227.4 449.6 223.3 459.3 219.6 469 211.8 475.1 212.2 475.1 211.7 475.1 214.8 469.1 213.7 459.3 213 449.6 208.2 436.1 202.6 421.3 197 406.4 197 393 201.1 383.3 204.8 373.6 212.6 367.5 212.2 367.5 212.7 367.5 209.6 373.5 210.7 383.3 211.4 393 216.3 406.4 221.8 421.3" fill="#f47e25" data-fill-palette-color="accent"></path><path d="M344.6 298.8C339 313.7 339 327.1 343.1 336.8 346.8 346.5 354.6 352.6 354.2 352.6 354.7 352.6 351.6 346.6 352.7 336.8 353.4 327.1 358.2 313.6 363.8 298.8 369.4 283.9 369.4 270.5 365.3 260.8 361.6 251.1 353.8 245 354.2 245 353.7 245 356.8 251 355.7 260.8 355 270.5 350.2 283.9 344.6 298.8" fill="#f47e25" data-fill-palette-color="accent"></path></g></svg></g></svg></g></svg></g><defs></defs></svg><rect width="395.52" height="93.95298169781915" fill="none" stroke="none" visibility="hidden"></rect></g></svg></g></svg>